<mxfile host="Electron" modified="2023-06-15T11:16:38.708Z" agent="Mozilla/5.0 (Macintosh; Intel Mac OS X 10_15_7) AppleWebKit/537.36 (KHTML, like Gecko) draw.io/21.1.2 Chrome/106.0.5249.199 Electron/21.4.3 Safari/537.36" etag="APpm0e57GjYsAHm8_OiS" version="21.1.2" type="device">
  <diagram name="Page-1" id="2YBvvXClWsGukQMizWep">
    <mxGraphModel dx="444" dy="324" grid="1" gridSize="10" guides="1" tooltips="1" connect="1" arrows="1" fold="1" page="1" pageScale="1" pageWidth="850" pageHeight="1100" math="0" shadow="0">
      <root>
        <mxCell id="0" />
        <mxCell id="1" parent="0" />
        <mxCell id="aM9ryv3xv72pqoxQDRHE-1" value="Server" style="shape=umlLifeline;perimeter=lifelinePerimeter;whiteSpace=wrap;html=1;container=0;dropTarget=0;collapsible=0;recursiveResize=0;outlineConnect=0;portConstraint=eastwest;newEdgeStyle={&quot;edgeStyle&quot;:&quot;elbowEdgeStyle&quot;,&quot;elbow&quot;:&quot;vertical&quot;,&quot;curved&quot;:0,&quot;rounded&quot;:0};" parent="1" vertex="1">
          <mxGeometry x="180" y="100" width="100" height="680" as="geometry" />
        </mxCell>
        <mxCell id="aM9ryv3xv72pqoxQDRHE-2" value="" style="html=1;points=[];perimeter=orthogonalPerimeter;outlineConnect=0;targetShapes=umlLifeline;portConstraint=eastwest;newEdgeStyle={&quot;edgeStyle&quot;:&quot;elbowEdgeStyle&quot;,&quot;elbow&quot;:&quot;vertical&quot;,&quot;curved&quot;:0,&quot;rounded&quot;:0};" parent="aM9ryv3xv72pqoxQDRHE-1" vertex="1">
          <mxGeometry x="45" y="60" width="10" height="600" as="geometry" />
        </mxCell>
        <mxCell id="aM9ryv3xv72pqoxQDRHE-3" value="/start" style="html=1;verticalAlign=bottom;startArrow=oval;endArrow=block;startSize=8;edgeStyle=elbowEdgeStyle;elbow=vertical;curved=0;rounded=0;" parent="aM9ryv3xv72pqoxQDRHE-1" target="aM9ryv3xv72pqoxQDRHE-2" edge="1">
          <mxGeometry relative="1" as="geometry">
            <mxPoint x="-100" y="70" as="sourcePoint" />
          </mxGeometry>
        </mxCell>
        <mxCell id="aM9ryv3xv72pqoxQDRHE-5" value="ChatController" style="shape=umlLifeline;perimeter=lifelinePerimeter;whiteSpace=wrap;html=1;container=0;dropTarget=0;collapsible=0;recursiveResize=0;outlineConnect=0;portConstraint=eastwest;newEdgeStyle={&quot;edgeStyle&quot;:&quot;elbowEdgeStyle&quot;,&quot;elbow&quot;:&quot;vertical&quot;,&quot;curved&quot;:0,&quot;rounded&quot;:0};" parent="1" vertex="1">
          <mxGeometry x="335" y="100" width="100" height="660" as="geometry" />
        </mxCell>
        <mxCell id="aM9ryv3xv72pqoxQDRHE-6" value="" style="html=1;points=[];perimeter=orthogonalPerimeter;outlineConnect=0;targetShapes=umlLifeline;portConstraint=eastwest;newEdgeStyle={&quot;edgeStyle&quot;:&quot;elbowEdgeStyle&quot;,&quot;elbow&quot;:&quot;vertical&quot;,&quot;curved&quot;:0,&quot;rounded&quot;:0};" parent="aM9ryv3xv72pqoxQDRHE-5" vertex="1">
          <mxGeometry x="45" y="70" width="10" height="580" as="geometry" />
        </mxCell>
        <mxCell id="aM9ryv3xv72pqoxQDRHE-7" value="startChat()" style="html=1;verticalAlign=bottom;endArrow=block;edgeStyle=elbowEdgeStyle;elbow=vertical;curved=0;rounded=0;" parent="1" source="aM9ryv3xv72pqoxQDRHE-2" target="aM9ryv3xv72pqoxQDRHE-6" edge="1">
          <mxGeometry relative="1" as="geometry">
            <mxPoint x="310" y="190" as="sourcePoint" />
            <Array as="points">
              <mxPoint x="295" y="180" />
            </Array>
          </mxGeometry>
        </mxCell>
        <mxCell id="3oZdiD5cq_e08_K9P_xn-2" value="" style="endArrow=classic;html=1;rounded=0;" edge="1" parent="1">
          <mxGeometry width="50" height="50" relative="1" as="geometry">
            <mxPoint x="20" y="40" as="sourcePoint" />
            <mxPoint x="20" y="790" as="targetPoint" />
          </mxGeometry>
        </mxCell>
        <mxCell id="3oZdiD5cq_e08_K9P_xn-3" value="TIME" style="edgeLabel;html=1;align=center;verticalAlign=middle;resizable=0;points=[];" vertex="1" connectable="0" parent="3oZdiD5cq_e08_K9P_xn-2">
          <mxGeometry x="-0.5947" relative="1" as="geometry">
            <mxPoint y="-162" as="offset" />
          </mxGeometry>
        </mxCell>
        <mxCell id="3oZdiD5cq_e08_K9P_xn-5" value="Threads (1 Thread = 1 Client)" style="swimlane;whiteSpace=wrap;html=1;" vertex="1" parent="1">
          <mxGeometry x="500" y="60" width="200" height="650" as="geometry">
            <mxRectangle x="500" y="60" width="210" height="30" as="alternateBounds" />
          </mxGeometry>
        </mxCell>
        <mxCell id="3oZdiD5cq_e08_K9P_xn-6" value="ChatHandler Thread" style="shape=umlLifeline;perimeter=lifelinePerimeter;whiteSpace=wrap;html=1;container=0;dropTarget=0;collapsible=0;recursiveResize=0;outlineConnect=0;portConstraint=eastwest;newEdgeStyle={&quot;edgeStyle&quot;:&quot;elbowEdgeStyle&quot;,&quot;elbow&quot;:&quot;vertical&quot;,&quot;curved&quot;:0,&quot;rounded&quot;:0};" vertex="1" parent="3oZdiD5cq_e08_K9P_xn-5">
          <mxGeometry x="50" y="40" width="100" height="610" as="geometry" />
        </mxCell>
        <mxCell id="3oZdiD5cq_e08_K9P_xn-8" value="start Thread" style="html=1;verticalAlign=bottom;endArrow=block;edgeStyle=elbowEdgeStyle;elbow=vertical;curved=0;rounded=0;" edge="1" parent="1" target="3oZdiD5cq_e08_K9P_xn-10">
          <mxGeometry x="0.5909" relative="1" as="geometry">
            <mxPoint x="390" y="190" as="sourcePoint" />
            <Array as="points">
              <mxPoint x="450" y="190" />
            </Array>
            <mxPoint x="535" y="190" as="targetPoint" />
            <mxPoint as="offset" />
          </mxGeometry>
        </mxCell>
        <mxCell id="3oZdiD5cq_e08_K9P_xn-9" value="ConnectionHandler Thread" style="shape=umlLifeline;perimeter=lifelinePerimeter;whiteSpace=wrap;html=1;container=0;dropTarget=0;collapsible=0;recursiveResize=0;outlineConnect=0;portConstraint=eastwest;newEdgeStyle={&quot;edgeStyle&quot;:&quot;elbowEdgeStyle&quot;,&quot;elbow&quot;:&quot;vertical&quot;,&quot;curved&quot;:0,&quot;rounded&quot;:0};" vertex="1" parent="1">
          <mxGeometry x="780" y="100" width="110" height="660" as="geometry" />
        </mxCell>
        <mxCell id="3oZdiD5cq_e08_K9P_xn-10" value="" style="html=1;points=[];perimeter=orthogonalPerimeter;outlineConnect=0;targetShapes=umlLifeline;portConstraint=eastwest;newEdgeStyle={&quot;edgeStyle&quot;:&quot;elbowEdgeStyle&quot;,&quot;elbow&quot;:&quot;vertical&quot;,&quot;curved&quot;:0,&quot;rounded&quot;:0};" vertex="1" parent="3oZdiD5cq_e08_K9P_xn-9">
          <mxGeometry x="50" y="78" width="10" height="562" as="geometry" />
        </mxCell>
        <mxCell id="3oZdiD5cq_e08_K9P_xn-14" value="Server" style="swimlane;whiteSpace=wrap;html=1;" vertex="1" parent="1">
          <mxGeometry x="170" y="10" width="750" height="780" as="geometry">
            <mxRectangle x="170" y="10" width="80" height="30" as="alternateBounds" />
          </mxGeometry>
        </mxCell>
        <mxCell id="3oZdiD5cq_e08_K9P_xn-15" value="wait command" style="html=1;verticalAlign=bottom;endArrow=block;edgeStyle=elbowEdgeStyle;elbow=vertical;curved=0;rounded=0;" edge="1" parent="3oZdiD5cq_e08_K9P_xn-14">
          <mxGeometry relative="1" as="geometry">
            <mxPoint x="55" y="202" as="sourcePoint" />
            <Array as="points">
              <mxPoint x="-30" y="202" />
            </Array>
            <mxPoint x="-90" y="202" as="targetPoint" />
          </mxGeometry>
        </mxCell>
        <mxCell id="3oZdiD5cq_e08_K9P_xn-7" value="" style="html=1;points=[];perimeter=orthogonalPerimeter;outlineConnect=0;targetShapes=umlLifeline;portConstraint=eastwest;newEdgeStyle={&quot;edgeStyle&quot;:&quot;elbowEdgeStyle&quot;,&quot;elbow&quot;:&quot;vertical&quot;,&quot;curved&quot;:0,&quot;rounded&quot;:0};" vertex="1" parent="3oZdiD5cq_e08_K9P_xn-14">
          <mxGeometry x="425" y="250" width="10" height="290" as="geometry" />
        </mxCell>
        <mxCell id="3oZdiD5cq_e08_K9P_xn-57" value="print statistic" style="html=1;verticalAlign=bottom;endArrow=block;edgeStyle=elbowEdgeStyle;elbow=vertical;curved=0;rounded=0;" edge="1" parent="3oZdiD5cq_e08_K9P_xn-14" source="aM9ryv3xv72pqoxQDRHE-6">
          <mxGeometry x="0.5333" relative="1" as="geometry">
            <mxPoint x="205" y="310" as="sourcePoint" />
            <Array as="points">
              <mxPoint x="120" y="310" />
            </Array>
            <mxPoint x="-90" y="310" as="targetPoint" />
            <mxPoint as="offset" />
          </mxGeometry>
        </mxCell>
        <mxCell id="3oZdiD5cq_e08_K9P_xn-81" value="" style="endArrow=classic;html=1;rounded=0;" edge="1" parent="3oZdiD5cq_e08_K9P_xn-14">
          <mxGeometry width="50" height="50" relative="1" as="geometry">
            <mxPoint x="940" y="490" as="sourcePoint" />
            <mxPoint x="435" y="490" as="targetPoint" />
          </mxGeometry>
        </mxCell>
        <mxCell id="3oZdiD5cq_e08_K9P_xn-82" value="Send Close Message" style="edgeLabel;html=1;align=center;verticalAlign=middle;resizable=0;points=[];" vertex="1" connectable="0" parent="3oZdiD5cq_e08_K9P_xn-81">
          <mxGeometry x="-0.3983" y="-1" relative="1" as="geometry">
            <mxPoint x="22" y="-10" as="offset" />
          </mxGeometry>
        </mxCell>
        <mxCell id="3oZdiD5cq_e08_K9P_xn-86" value="" style="endArrow=classic;html=1;rounded=0;" edge="1" parent="3oZdiD5cq_e08_K9P_xn-14">
          <mxGeometry width="50" height="50" relative="1" as="geometry">
            <mxPoint x="425" y="500" as="sourcePoint" />
            <mxPoint x="220" y="500" as="targetPoint" />
          </mxGeometry>
        </mxCell>
        <mxCell id="3oZdiD5cq_e08_K9P_xn-88" value="Close Client" style="edgeLabel;html=1;align=center;verticalAlign=middle;resizable=0;points=[];" vertex="1" connectable="0" parent="3oZdiD5cq_e08_K9P_xn-86">
          <mxGeometry x="0.1557" y="-1" relative="1" as="geometry">
            <mxPoint x="-17" y="-9" as="offset" />
          </mxGeometry>
        </mxCell>
        <mxCell id="3oZdiD5cq_e08_K9P_xn-89" value="" style="endArrow=classic;html=1;rounded=0;" edge="1" parent="3oZdiD5cq_e08_K9P_xn-14">
          <mxGeometry width="50" height="50" relative="1" as="geometry">
            <mxPoint x="220" y="520" as="sourcePoint" />
            <mxPoint x="425" y="520" as="targetPoint" />
          </mxGeometry>
        </mxCell>
        <mxCell id="3oZdiD5cq_e08_K9P_xn-90" value="send message user left the chat" style="edgeLabel;html=1;align=center;verticalAlign=middle;resizable=0;points=[];" vertex="1" connectable="0" parent="3oZdiD5cq_e08_K9P_xn-89">
          <mxGeometry x="-0.8884" y="1" relative="1" as="geometry">
            <mxPoint x="78" y="-9" as="offset" />
          </mxGeometry>
        </mxCell>
        <mxCell id="3oZdiD5cq_e08_K9P_xn-91" value="" style="endArrow=classic;html=1;rounded=0;" edge="1" parent="3oZdiD5cq_e08_K9P_xn-14">
          <mxGeometry width="50" height="50" relative="1" as="geometry">
            <mxPoint x="435" y="530" as="sourcePoint" />
            <mxPoint x="1100" y="530" as="targetPoint" />
          </mxGeometry>
        </mxCell>
        <mxCell id="3oZdiD5cq_e08_K9P_xn-92" value="Send Close Message" style="edgeLabel;html=1;align=center;verticalAlign=middle;resizable=0;points=[];" vertex="1" connectable="0" parent="3oZdiD5cq_e08_K9P_xn-91">
          <mxGeometry x="0.0952" y="1" relative="1" as="geometry">
            <mxPoint x="11" y="-8" as="offset" />
          </mxGeometry>
        </mxCell>
        <mxCell id="3oZdiD5cq_e08_K9P_xn-93" value="Save message to log" style="edgeLabel;html=1;align=center;verticalAlign=middle;resizable=0;points=[];" vertex="1" connectable="0" parent="3oZdiD5cq_e08_K9P_xn-91">
          <mxGeometry x="0.8655" y="2" relative="1" as="geometry">
            <mxPoint x="-26" y="-7" as="offset" />
          </mxGeometry>
        </mxCell>
        <mxCell id="3oZdiD5cq_e08_K9P_xn-99" value="/exit" style="html=1;verticalAlign=bottom;startArrow=oval;endArrow=block;startSize=8;edgeStyle=elbowEdgeStyle;elbow=vertical;curved=0;rounded=0;" edge="1" parent="3oZdiD5cq_e08_K9P_xn-14">
          <mxGeometry relative="1" as="geometry">
            <mxPoint x="-90" y="630.31" as="sourcePoint" />
            <mxPoint x="55" y="630.31" as="targetPoint" />
          </mxGeometry>
        </mxCell>
        <mxCell id="3oZdiD5cq_e08_K9P_xn-100" value="" style="html=1;points=[];perimeter=orthogonalPerimeter;outlineConnect=0;targetShapes=umlLifeline;portConstraint=eastwest;newEdgeStyle={&quot;edgeStyle&quot;:&quot;elbowEdgeStyle&quot;,&quot;elbow&quot;:&quot;vertical&quot;,&quot;curved&quot;:0,&quot;rounded&quot;:0};" vertex="1" parent="3oZdiD5cq_e08_K9P_xn-14">
          <mxGeometry x="425" y="590" width="10" height="100" as="geometry" />
        </mxCell>
        <mxCell id="3oZdiD5cq_e08_K9P_xn-101" value="" style="endArrow=classic;html=1;rounded=0;" edge="1" parent="3oZdiD5cq_e08_K9P_xn-14">
          <mxGeometry width="50" height="50" relative="1" as="geometry">
            <mxPoint x="65" y="639.78" as="sourcePoint" />
            <mxPoint x="210" y="639.78" as="targetPoint" />
          </mxGeometry>
        </mxCell>
        <mxCell id="3oZdiD5cq_e08_K9P_xn-102" value="stopChat()" style="edgeLabel;html=1;align=center;verticalAlign=middle;resizable=0;points=[];" vertex="1" connectable="0" parent="3oZdiD5cq_e08_K9P_xn-101">
          <mxGeometry x="-0.2188" y="1" relative="1" as="geometry">
            <mxPoint y="-11" as="offset" />
          </mxGeometry>
        </mxCell>
        <mxCell id="3oZdiD5cq_e08_K9P_xn-103" value="" style="endArrow=classic;html=1;rounded=0;" edge="1" parent="3oZdiD5cq_e08_K9P_xn-14">
          <mxGeometry width="50" height="50" relative="1" as="geometry">
            <mxPoint x="220" y="650" as="sourcePoint" />
            <mxPoint x="425" y="650" as="targetPoint" />
          </mxGeometry>
        </mxCell>
        <mxCell id="3oZdiD5cq_e08_K9P_xn-104" value="send message user left the chat" style="edgeLabel;html=1;align=center;verticalAlign=middle;resizable=0;points=[];" vertex="1" connectable="0" parent="3oZdiD5cq_e08_K9P_xn-103">
          <mxGeometry x="-0.8884" y="1" relative="1" as="geometry">
            <mxPoint x="78" y="-9" as="offset" />
          </mxGeometry>
        </mxCell>
        <mxCell id="3oZdiD5cq_e08_K9P_xn-105" value="" style="endArrow=classic;html=1;rounded=0;" edge="1" parent="3oZdiD5cq_e08_K9P_xn-14">
          <mxGeometry width="50" height="50" relative="1" as="geometry">
            <mxPoint x="425" y="620" as="sourcePoint" />
            <mxPoint x="220" y="620" as="targetPoint" />
          </mxGeometry>
        </mxCell>
        <mxCell id="3oZdiD5cq_e08_K9P_xn-106" value="Close Client" style="edgeLabel;html=1;align=center;verticalAlign=middle;resizable=0;points=[];" vertex="1" connectable="0" parent="3oZdiD5cq_e08_K9P_xn-105">
          <mxGeometry x="0.1557" y="-1" relative="1" as="geometry">
            <mxPoint x="-17" y="-9" as="offset" />
          </mxGeometry>
        </mxCell>
        <mxCell id="3oZdiD5cq_e08_K9P_xn-108" value="Loop (Close Threads and Clients)" style="swimlane;whiteSpace=wrap;html=1;" vertex="1" parent="3oZdiD5cq_e08_K9P_xn-14">
          <mxGeometry x="190" y="560" width="260" height="110" as="geometry" />
        </mxCell>
        <mxCell id="3oZdiD5cq_e08_K9P_xn-109" value="stop Thread" style="html=1;verticalAlign=bottom;endArrow=block;edgeStyle=elbowEdgeStyle;elbow=vertical;curved=0;rounded=0;" edge="1" parent="3oZdiD5cq_e08_K9P_xn-14">
          <mxGeometry x="0.5909" relative="1" as="geometry">
            <mxPoint x="220" y="720" as="sourcePoint" />
            <Array as="points">
              <mxPoint x="280" y="720" />
            </Array>
            <mxPoint x="660" y="720" as="targetPoint" />
            <mxPoint as="offset" />
          </mxGeometry>
        </mxCell>
        <mxCell id="3oZdiD5cq_e08_K9P_xn-112" value="Finished" style="html=1;verticalAlign=bottom;endArrow=block;edgeStyle=elbowEdgeStyle;elbow=vertical;curved=0;rounded=0;" edge="1" parent="3oZdiD5cq_e08_K9P_xn-14" source="aM9ryv3xv72pqoxQDRHE-2">
          <mxGeometry x="0.1718" relative="1" as="geometry">
            <mxPoint x="50" y="740" as="sourcePoint" />
            <Array as="points" />
            <mxPoint x="-90" y="740" as="targetPoint" />
            <mxPoint as="offset" />
          </mxGeometry>
        </mxCell>
        <mxCell id="3oZdiD5cq_e08_K9P_xn-11" value="ChatClient" style="shape=umlLifeline;perimeter=lifelinePerimeter;whiteSpace=wrap;html=1;container=0;dropTarget=0;collapsible=0;recursiveResize=0;outlineConnect=0;portConstraint=eastwest;newEdgeStyle={&quot;edgeStyle&quot;:&quot;elbowEdgeStyle&quot;,&quot;elbow&quot;:&quot;vertical&quot;,&quot;curved&quot;:0,&quot;rounded&quot;:0};" vertex="1" parent="1">
          <mxGeometry x="1060" y="100" width="110" height="510" as="geometry" />
        </mxCell>
        <mxCell id="3oZdiD5cq_e08_K9P_xn-12" value="" style="html=1;points=[];perimeter=orthogonalPerimeter;outlineConnect=0;targetShapes=umlLifeline;portConstraint=eastwest;newEdgeStyle={&quot;edgeStyle&quot;:&quot;elbowEdgeStyle&quot;,&quot;elbow&quot;:&quot;vertical&quot;,&quot;curved&quot;:0,&quot;rounded&quot;:0};" vertex="1" parent="3oZdiD5cq_e08_K9P_xn-11">
          <mxGeometry x="50" y="90" width="10" height="410" as="geometry" />
        </mxCell>
        <mxCell id="3oZdiD5cq_e08_K9P_xn-13" value="" style="endArrow=none;dashed=1;html=1;dashPattern=1 3;strokeWidth=2;rounded=0;" edge="1" parent="1">
          <mxGeometry width="50" height="50" relative="1" as="geometry">
            <mxPoint x="980" y="760" as="sourcePoint" />
            <mxPoint x="980" y="40" as="targetPoint" />
          </mxGeometry>
        </mxCell>
        <mxCell id="3oZdiD5cq_e08_K9P_xn-16" value="" style="endArrow=classic;html=1;rounded=0;" edge="1" parent="1">
          <mxGeometry width="50" height="50" relative="1" as="geometry">
            <mxPoint x="1852" y="40" as="sourcePoint" />
            <mxPoint x="1852" y="790" as="targetPoint" />
          </mxGeometry>
        </mxCell>
        <mxCell id="3oZdiD5cq_e08_K9P_xn-17" value="TIME" style="edgeLabel;html=1;align=center;verticalAlign=middle;resizable=0;points=[];" vertex="1" connectable="0" parent="3oZdiD5cq_e08_K9P_xn-16">
          <mxGeometry x="-0.5947" relative="1" as="geometry">
            <mxPoint x="-2" y="-162" as="offset" />
          </mxGeometry>
        </mxCell>
        <mxCell id="3oZdiD5cq_e08_K9P_xn-18" value="" style="group" vertex="1" connectable="0" parent="1">
          <mxGeometry x="70" y="40" width="30" height="720" as="geometry" />
        </mxCell>
        <mxCell id="3oZdiD5cq_e08_K9P_xn-1" value="Admin" style="shape=umlActor;verticalLabelPosition=bottom;verticalAlign=top;html=1;outlineConnect=0;" vertex="1" parent="3oZdiD5cq_e08_K9P_xn-18">
          <mxGeometry width="30" height="78.54545454545456" as="geometry" />
        </mxCell>
        <mxCell id="3oZdiD5cq_e08_K9P_xn-4" value="" style="endArrow=none;dashed=1;html=1;rounded=0;" edge="1" parent="3oZdiD5cq_e08_K9P_xn-18">
          <mxGeometry width="50" height="50" relative="1" as="geometry">
            <mxPoint x="10" y="720" as="sourcePoint" />
            <mxPoint x="10" y="117.81818181818183" as="targetPoint" />
          </mxGeometry>
        </mxCell>
        <mxCell id="3oZdiD5cq_e08_K9P_xn-19" value="" style="group" vertex="1" connectable="0" parent="1">
          <mxGeometry x="1770" y="37" width="30" height="573" as="geometry" />
        </mxCell>
        <mxCell id="3oZdiD5cq_e08_K9P_xn-20" value="Client" style="shape=umlActor;verticalLabelPosition=bottom;verticalAlign=top;html=1;outlineConnect=0;" vertex="1" parent="3oZdiD5cq_e08_K9P_xn-19">
          <mxGeometry x="-2" width="30" height="62.50909090909091" as="geometry" />
        </mxCell>
        <mxCell id="3oZdiD5cq_e08_K9P_xn-21" value="" style="endArrow=none;dashed=1;html=1;rounded=0;" edge="1" parent="3oZdiD5cq_e08_K9P_xn-19">
          <mxGeometry width="50" height="50" relative="1" as="geometry">
            <mxPoint x="10" y="573" as="sourcePoint" />
            <mxPoint x="10" y="93.76363636363635" as="targetPoint" />
          </mxGeometry>
        </mxCell>
        <mxCell id="3oZdiD5cq_e08_K9P_xn-22" value="Client" style="shape=umlLifeline;perimeter=lifelinePerimeter;whiteSpace=wrap;html=1;container=0;dropTarget=0;collapsible=0;recursiveResize=0;outlineConnect=0;portConstraint=eastwest;newEdgeStyle={&quot;edgeStyle&quot;:&quot;elbowEdgeStyle&quot;,&quot;elbow&quot;:&quot;vertical&quot;,&quot;curved&quot;:0,&quot;rounded&quot;:0};" vertex="1" parent="1">
          <mxGeometry x="1550" y="100" width="110" height="520" as="geometry" />
        </mxCell>
        <mxCell id="3oZdiD5cq_e08_K9P_xn-23" value="" style="html=1;points=[];perimeter=orthogonalPerimeter;outlineConnect=0;targetShapes=umlLifeline;portConstraint=eastwest;newEdgeStyle={&quot;edgeStyle&quot;:&quot;elbowEdgeStyle&quot;,&quot;elbow&quot;:&quot;vertical&quot;,&quot;curved&quot;:0,&quot;rounded&quot;:0};" vertex="1" parent="3oZdiD5cq_e08_K9P_xn-22">
          <mxGeometry x="50" y="78" width="10" height="432" as="geometry" />
        </mxCell>
        <mxCell id="3oZdiD5cq_e08_K9P_xn-24" value="ChatMessageReader Thread" style="shape=umlLifeline;perimeter=lifelinePerimeter;whiteSpace=wrap;html=1;container=0;dropTarget=0;collapsible=0;recursiveResize=0;outlineConnect=0;portConstraint=eastwest;newEdgeStyle={&quot;edgeStyle&quot;:&quot;elbowEdgeStyle&quot;,&quot;elbow&quot;:&quot;vertical&quot;,&quot;curved&quot;:0,&quot;rounded&quot;:0};" vertex="1" parent="1">
          <mxGeometry x="1215" y="100" width="120" height="490" as="geometry" />
        </mxCell>
        <mxCell id="3oZdiD5cq_e08_K9P_xn-26" value="ChatMessageViewer" style="shape=umlLifeline;perimeter=lifelinePerimeter;whiteSpace=wrap;html=1;container=0;dropTarget=0;collapsible=0;recursiveResize=0;outlineConnect=0;portConstraint=eastwest;newEdgeStyle={&quot;edgeStyle&quot;:&quot;elbowEdgeStyle&quot;,&quot;elbow&quot;:&quot;vertical&quot;,&quot;curved&quot;:0,&quot;rounded&quot;:0};" vertex="1" parent="1">
          <mxGeometry x="1380" y="100" width="120" height="450" as="geometry" />
        </mxCell>
        <mxCell id="3oZdiD5cq_e08_K9P_xn-28" value="write Client Info" style="html=1;verticalAlign=bottom;startArrow=classic;endArrow=oval;startSize=8;edgeStyle=elbowEdgeStyle;elbow=vertical;curved=0;rounded=0;endFill=1;startFill=1;" edge="1" parent="1">
          <mxGeometry x="0.4096" relative="1" as="geometry">
            <mxPoint x="1610" y="190" as="sourcePoint" />
            <mxPoint x="1780" y="190" as="targetPoint" />
            <mxPoint as="offset" />
          </mxGeometry>
        </mxCell>
        <mxCell id="3oZdiD5cq_e08_K9P_xn-29" value="connect()" style="html=1;verticalAlign=bottom;endArrow=block;edgeStyle=elbowEdgeStyle;elbow=vertical;curved=0;rounded=0;" edge="1" parent="1" source="3oZdiD5cq_e08_K9P_xn-23" target="3oZdiD5cq_e08_K9P_xn-12">
          <mxGeometry x="0.6667" relative="1" as="geometry">
            <mxPoint x="1595" y="200" as="sourcePoint" />
            <Array as="points">
              <mxPoint x="1510" y="200" />
            </Array>
            <mxPoint x="1450" y="200" as="targetPoint" />
            <mxPoint as="offset" />
          </mxGeometry>
        </mxCell>
        <mxCell id="3oZdiD5cq_e08_K9P_xn-30" value="" style="endArrow=classic;html=1;rounded=0;startArrow=classic;startFill=1;" edge="1" parent="1" source="3oZdiD5cq_e08_K9P_xn-12">
          <mxGeometry width="50" height="50" relative="1" as="geometry">
            <mxPoint x="1030" y="210" as="sourcePoint" />
            <mxPoint x="840" y="210" as="targetPoint" />
          </mxGeometry>
        </mxCell>
        <mxCell id="3oZdiD5cq_e08_K9P_xn-31" value="Socket connect()" style="edgeLabel;html=1;align=center;verticalAlign=middle;resizable=0;points=[];" vertex="1" connectable="0" parent="3oZdiD5cq_e08_K9P_xn-30">
          <mxGeometry x="0.2855" y="-2" relative="1" as="geometry">
            <mxPoint x="54" y="-8" as="offset" />
          </mxGeometry>
        </mxCell>
        <mxCell id="3oZdiD5cq_e08_K9P_xn-32" value="Client" style="swimlane;whiteSpace=wrap;html=1;" vertex="1" parent="1">
          <mxGeometry x="1040" y="10" width="640" height="620" as="geometry" />
        </mxCell>
        <mxCell id="3oZdiD5cq_e08_K9P_xn-25" value="" style="html=1;points=[];perimeter=orthogonalPerimeter;outlineConnect=0;targetShapes=umlLifeline;portConstraint=eastwest;newEdgeStyle={&quot;edgeStyle&quot;:&quot;elbowEdgeStyle&quot;,&quot;elbow&quot;:&quot;vertical&quot;,&quot;curved&quot;:0,&quot;rounded&quot;:0};" vertex="1" parent="3oZdiD5cq_e08_K9P_xn-32">
          <mxGeometry x="230" y="270" width="10" height="290" as="geometry" />
        </mxCell>
        <mxCell id="3oZdiD5cq_e08_K9P_xn-27" value="" style="html=1;points=[];perimeter=orthogonalPerimeter;outlineConnect=0;targetShapes=umlLifeline;portConstraint=eastwest;newEdgeStyle={&quot;edgeStyle&quot;:&quot;elbowEdgeStyle&quot;,&quot;elbow&quot;:&quot;vertical&quot;,&quot;curved&quot;:0,&quot;rounded&quot;:0};" vertex="1" parent="3oZdiD5cq_e08_K9P_xn-32">
          <mxGeometry x="395" y="420" width="10" height="40" as="geometry" />
        </mxCell>
        <mxCell id="3oZdiD5cq_e08_K9P_xn-62" value="" style="endArrow=none;html=1;rounded=0;startArrow=classic;startFill=1;endFill=0;" edge="1" parent="3oZdiD5cq_e08_K9P_xn-32">
          <mxGeometry width="50" height="50" relative="1" as="geometry">
            <mxPoint x="80" y="350" as="sourcePoint" />
            <mxPoint x="560" y="350" as="targetPoint" />
          </mxGeometry>
        </mxCell>
        <mxCell id="3oZdiD5cq_e08_K9P_xn-63" value="msg" style="edgeLabel;html=1;align=center;verticalAlign=middle;resizable=0;points=[];" vertex="1" connectable="0" parent="3oZdiD5cq_e08_K9P_xn-62">
          <mxGeometry x="-0.7211" y="1" relative="1" as="geometry">
            <mxPoint y="-8" as="offset" />
          </mxGeometry>
        </mxCell>
        <mxCell id="3oZdiD5cq_e08_K9P_xn-84" value="" style="endArrow=classic;html=1;rounded=0;" edge="1" parent="3oZdiD5cq_e08_K9P_xn-32">
          <mxGeometry width="50" height="50" relative="1" as="geometry">
            <mxPoint x="80" y="550" as="sourcePoint" />
            <mxPoint x="230" y="550" as="targetPoint" />
          </mxGeometry>
        </mxCell>
        <mxCell id="3oZdiD5cq_e08_K9P_xn-85" value="Stop Thread Reader" style="edgeLabel;html=1;align=center;verticalAlign=middle;resizable=0;points=[];" vertex="1" connectable="0" parent="3oZdiD5cq_e08_K9P_xn-84">
          <mxGeometry x="0.3294" relative="1" as="geometry">
            <mxPoint x="-20" y="-10" as="offset" />
          </mxGeometry>
        </mxCell>
        <mxCell id="3oZdiD5cq_e08_K9P_xn-95" value="" style="endArrow=classic;html=1;rounded=0;" edge="1" parent="3oZdiD5cq_e08_K9P_xn-32">
          <mxGeometry width="50" height="50" relative="1" as="geometry">
            <mxPoint x="80" y="580" as="sourcePoint" />
            <mxPoint x="560" y="580" as="targetPoint" />
          </mxGeometry>
        </mxCell>
        <mxCell id="3oZdiD5cq_e08_K9P_xn-96" value="close()" style="edgeLabel;html=1;align=center;verticalAlign=middle;resizable=0;points=[];" vertex="1" connectable="0" parent="3oZdiD5cq_e08_K9P_xn-95">
          <mxGeometry x="-0.7211" y="1" relative="1" as="geometry">
            <mxPoint y="-8" as="offset" />
          </mxGeometry>
        </mxCell>
        <mxCell id="3oZdiD5cq_e08_K9P_xn-33" value="" style="endArrow=none;html=1;rounded=0;startArrow=classic;startFill=1;endFill=0;" edge="1" parent="1">
          <mxGeometry width="50" height="50" relative="1" as="geometry">
            <mxPoint x="840" y="241" as="sourcePoint" />
            <mxPoint x="1110" y="241" as="targetPoint" />
          </mxGeometry>
        </mxCell>
        <mxCell id="3oZdiD5cq_e08_K9P_xn-41" value="send ClientInfo json" style="edgeLabel;html=1;align=center;verticalAlign=middle;resizable=0;points=[];" vertex="1" connectable="0" parent="3oZdiD5cq_e08_K9P_xn-33">
          <mxGeometry x="0.0748" y="3" relative="1" as="geometry">
            <mxPoint x="-5" y="-8" as="offset" />
          </mxGeometry>
        </mxCell>
        <mxCell id="3oZdiD5cq_e08_K9P_xn-35" value="" style="endArrow=classic;html=1;rounded=0;" edge="1" parent="1">
          <mxGeometry width="50" height="50" relative="1" as="geometry">
            <mxPoint x="1120" y="309" as="sourcePoint" />
            <mxPoint x="1600" y="309" as="targetPoint" />
          </mxGeometry>
        </mxCell>
        <mxCell id="3oZdiD5cq_e08_K9P_xn-53" value="Connected" style="edgeLabel;html=1;align=center;verticalAlign=middle;resizable=0;points=[];" vertex="1" connectable="0" parent="3oZdiD5cq_e08_K9P_xn-35">
          <mxGeometry x="-0.7211" y="1" relative="1" as="geometry">
            <mxPoint y="-8" as="offset" />
          </mxGeometry>
        </mxCell>
        <mxCell id="3oZdiD5cq_e08_K9P_xn-37" value="" style="endArrow=classic;html=1;rounded=0;" edge="1" parent="1">
          <mxGeometry width="50" height="50" relative="1" as="geometry">
            <mxPoint x="1610" y="319" as="sourcePoint" />
            <mxPoint x="1780" y="319" as="targetPoint" />
          </mxGeometry>
        </mxCell>
        <mxCell id="3oZdiD5cq_e08_K9P_xn-38" value="Wait command" style="edgeLabel;html=1;align=center;verticalAlign=middle;resizable=0;points=[];" vertex="1" connectable="0" parent="3oZdiD5cq_e08_K9P_xn-37">
          <mxGeometry x="0.3765" relative="1" as="geometry">
            <mxPoint y="-10" as="offset" />
          </mxGeometry>
        </mxCell>
        <mxCell id="3oZdiD5cq_e08_K9P_xn-39" value="/msg" style="html=1;verticalAlign=bottom;startArrow=classic;endArrow=oval;startSize=8;edgeStyle=elbowEdgeStyle;elbow=vertical;curved=0;rounded=0;endFill=1;startFill=1;" edge="1" parent="1">
          <mxGeometry x="0.4096" relative="1" as="geometry">
            <mxPoint x="1610" y="349.19" as="sourcePoint" />
            <mxPoint x="1780" y="349.19" as="targetPoint" />
            <mxPoint as="offset" />
          </mxGeometry>
        </mxCell>
        <mxCell id="3oZdiD5cq_e08_K9P_xn-40" value="" style="endArrow=classic;html=1;rounded=0;" edge="1" parent="1" target="3oZdiD5cq_e08_K9P_xn-25">
          <mxGeometry width="50" height="50" relative="1" as="geometry">
            <mxPoint x="1120" y="290" as="sourcePoint" />
            <mxPoint x="1430" y="180" as="targetPoint" />
          </mxGeometry>
        </mxCell>
        <mxCell id="3oZdiD5cq_e08_K9P_xn-52" value="Start Thread Reader" style="edgeLabel;html=1;align=center;verticalAlign=middle;resizable=0;points=[];" vertex="1" connectable="0" parent="3oZdiD5cq_e08_K9P_xn-40">
          <mxGeometry x="0.3294" relative="1" as="geometry">
            <mxPoint x="-20" y="-10" as="offset" />
          </mxGeometry>
        </mxCell>
        <mxCell id="3oZdiD5cq_e08_K9P_xn-42" value="" style="endArrow=classic;html=1;rounded=0;" edge="1" parent="1" target="aM9ryv3xv72pqoxQDRHE-6">
          <mxGeometry width="50" height="50" relative="1" as="geometry">
            <mxPoint x="830" y="250" as="sourcePoint" />
            <mxPoint x="750" y="200" as="targetPoint" />
          </mxGeometry>
        </mxCell>
        <mxCell id="3oZdiD5cq_e08_K9P_xn-43" value="Add client" style="edgeLabel;html=1;align=center;verticalAlign=middle;resizable=0;points=[];" vertex="1" connectable="0" parent="3oZdiD5cq_e08_K9P_xn-42">
          <mxGeometry x="-0.679" y="-1" relative="1" as="geometry">
            <mxPoint x="-10" y="-9" as="offset" />
          </mxGeometry>
        </mxCell>
        <mxCell id="3oZdiD5cq_e08_K9P_xn-44" value="" style="endArrow=classic;html=1;rounded=0;" edge="1" parent="1" target="3oZdiD5cq_e08_K9P_xn-7">
          <mxGeometry width="50" height="50" relative="1" as="geometry">
            <mxPoint x="390" y="270" as="sourcePoint" />
            <mxPoint x="590" y="270" as="targetPoint" />
          </mxGeometry>
        </mxCell>
        <mxCell id="3oZdiD5cq_e08_K9P_xn-45" value="start Client Thread" style="edgeLabel;html=1;align=center;verticalAlign=middle;resizable=0;points=[];" vertex="1" connectable="0" parent="3oZdiD5cq_e08_K9P_xn-44">
          <mxGeometry x="-0.5312" relative="1" as="geometry">
            <mxPoint x="2" y="-10" as="offset" />
          </mxGeometry>
        </mxCell>
        <mxCell id="3oZdiD5cq_e08_K9P_xn-46" value="" style="endArrow=classic;html=1;rounded=0;" edge="1" parent="1" source="3oZdiD5cq_e08_K9P_xn-7">
          <mxGeometry width="50" height="50" relative="1" as="geometry">
            <mxPoint x="680" y="290" as="sourcePoint" />
            <mxPoint x="1110" y="280" as="targetPoint" />
          </mxGeometry>
        </mxCell>
        <mxCell id="3oZdiD5cq_e08_K9P_xn-47" value="Send OK" style="edgeLabel;html=1;align=center;verticalAlign=middle;resizable=0;points=[];" vertex="1" connectable="0" parent="3oZdiD5cq_e08_K9P_xn-46">
          <mxGeometry x="0.5221" y="-1" relative="1" as="geometry">
            <mxPoint x="-10" y="-13" as="offset" />
          </mxGeometry>
        </mxCell>
        <mxCell id="3oZdiD5cq_e08_K9P_xn-54" value="/stat" style="html=1;verticalAlign=bottom;startArrow=oval;endArrow=block;startSize=8;edgeStyle=elbowEdgeStyle;elbow=vertical;curved=0;rounded=0;" edge="1" parent="1">
          <mxGeometry relative="1" as="geometry">
            <mxPoint x="80" y="290.14" as="sourcePoint" />
            <mxPoint x="225" y="290.14" as="targetPoint" />
          </mxGeometry>
        </mxCell>
        <mxCell id="3oZdiD5cq_e08_K9P_xn-55" value="" style="endArrow=classic;html=1;rounded=0;" edge="1" parent="1">
          <mxGeometry width="50" height="50" relative="1" as="geometry">
            <mxPoint x="235" y="302" as="sourcePoint" />
            <mxPoint x="380" y="302" as="targetPoint" />
          </mxGeometry>
        </mxCell>
        <mxCell id="3oZdiD5cq_e08_K9P_xn-56" value="Get statistic" style="edgeLabel;html=1;align=center;verticalAlign=middle;resizable=0;points=[];" vertex="1" connectable="0" parent="3oZdiD5cq_e08_K9P_xn-55">
          <mxGeometry x="-0.2188" y="1" relative="1" as="geometry">
            <mxPoint y="-11" as="offset" />
          </mxGeometry>
        </mxCell>
        <mxCell id="3oZdiD5cq_e08_K9P_xn-64" value="" style="endArrow=classic;html=1;rounded=0;" edge="1" parent="1" target="3oZdiD5cq_e08_K9P_xn-7">
          <mxGeometry width="50" height="50" relative="1" as="geometry">
            <mxPoint x="1110" y="370" as="sourcePoint" />
            <mxPoint x="900" y="310" as="targetPoint" />
          </mxGeometry>
        </mxCell>
        <mxCell id="3oZdiD5cq_e08_K9P_xn-65" value="Send Message" style="edgeLabel;html=1;align=center;verticalAlign=middle;resizable=0;points=[];" vertex="1" connectable="0" parent="3oZdiD5cq_e08_K9P_xn-64">
          <mxGeometry x="-0.3983" y="-1" relative="1" as="geometry">
            <mxPoint x="22" y="-10" as="offset" />
          </mxGeometry>
        </mxCell>
        <mxCell id="3oZdiD5cq_e08_K9P_xn-66" value="" style="endArrow=classic;html=1;rounded=0;" edge="1" parent="1" source="3oZdiD5cq_e08_K9P_xn-7">
          <mxGeometry width="50" height="50" relative="1" as="geometry">
            <mxPoint x="660" y="360" as="sourcePoint" />
            <mxPoint x="390" y="380" as="targetPoint" />
          </mxGeometry>
        </mxCell>
        <mxCell id="3oZdiD5cq_e08_K9P_xn-67" value="save message to chat" style="edgeLabel;html=1;align=center;verticalAlign=middle;resizable=0;points=[];" vertex="1" connectable="0" parent="3oZdiD5cq_e08_K9P_xn-66">
          <mxGeometry x="0.0799" relative="1" as="geometry">
            <mxPoint x="-29" y="-10" as="offset" />
          </mxGeometry>
        </mxCell>
        <mxCell id="3oZdiD5cq_e08_K9P_xn-68" value="" style="endArrow=classic;html=1;rounded=0;" edge="1" parent="1">
          <mxGeometry width="50" height="50" relative="1" as="geometry">
            <mxPoint x="390" y="400" as="sourcePoint" />
            <mxPoint x="595" y="400" as="targetPoint" />
          </mxGeometry>
        </mxCell>
        <mxCell id="3oZdiD5cq_e08_K9P_xn-69" value="send message to clients" style="edgeLabel;html=1;align=center;verticalAlign=middle;resizable=0;points=[];" vertex="1" connectable="0" parent="3oZdiD5cq_e08_K9P_xn-68">
          <mxGeometry x="-0.8884" y="1" relative="1" as="geometry">
            <mxPoint x="59" y="-9" as="offset" />
          </mxGeometry>
        </mxCell>
        <mxCell id="3oZdiD5cq_e08_K9P_xn-70" value="" style="endArrow=classic;html=1;rounded=0;" edge="1" parent="1">
          <mxGeometry width="50" height="50" relative="1" as="geometry">
            <mxPoint x="605" y="409" as="sourcePoint" />
            <mxPoint x="1270" y="409" as="targetPoint" />
          </mxGeometry>
        </mxCell>
        <mxCell id="3oZdiD5cq_e08_K9P_xn-71" value="Send Message" style="edgeLabel;html=1;align=center;verticalAlign=middle;resizable=0;points=[];" vertex="1" connectable="0" parent="3oZdiD5cq_e08_K9P_xn-70">
          <mxGeometry x="0.0952" y="1" relative="1" as="geometry">
            <mxPoint x="11" y="-8" as="offset" />
          </mxGeometry>
        </mxCell>
        <mxCell id="3oZdiD5cq_e08_K9P_xn-72" value="Save message to log" style="edgeLabel;html=1;align=center;verticalAlign=middle;resizable=0;points=[];" vertex="1" connectable="0" parent="3oZdiD5cq_e08_K9P_xn-70">
          <mxGeometry x="0.8655" y="2" relative="1" as="geometry">
            <mxPoint x="-26" y="-7" as="offset" />
          </mxGeometry>
        </mxCell>
        <mxCell id="3oZdiD5cq_e08_K9P_xn-73" value="/chat" style="html=1;verticalAlign=bottom;startArrow=classic;endArrow=oval;startSize=8;edgeStyle=elbowEdgeStyle;elbow=vertical;curved=0;rounded=0;endFill=1;startFill=1;" edge="1" parent="1">
          <mxGeometry x="0.4096" relative="1" as="geometry">
            <mxPoint x="1610" y="430.27" as="sourcePoint" />
            <mxPoint x="1780" y="430.27" as="targetPoint" />
            <mxPoint as="offset" />
          </mxGeometry>
        </mxCell>
        <mxCell id="3oZdiD5cq_e08_K9P_xn-74" value="" style="endArrow=classic;html=1;rounded=0;" edge="1" parent="1" target="3oZdiD5cq_e08_K9P_xn-27">
          <mxGeometry width="50" height="50" relative="1" as="geometry">
            <mxPoint x="1600" y="440" as="sourcePoint" />
            <mxPoint x="1460" y="440" as="targetPoint" />
          </mxGeometry>
        </mxCell>
        <mxCell id="3oZdiD5cq_e08_K9P_xn-75" value="print log messages" style="edgeLabel;html=1;align=center;verticalAlign=middle;resizable=0;points=[];" vertex="1" connectable="0" parent="3oZdiD5cq_e08_K9P_xn-74">
          <mxGeometry x="-0.4392" y="-1" relative="1" as="geometry">
            <mxPoint x="-16" y="-9" as="offset" />
          </mxGeometry>
        </mxCell>
        <mxCell id="3oZdiD5cq_e08_K9P_xn-76" value="" style="endArrow=classic;html=1;rounded=0;" edge="1" parent="1" source="3oZdiD5cq_e08_K9P_xn-27">
          <mxGeometry width="50" height="50" relative="1" as="geometry">
            <mxPoint x="1450" y="460" as="sourcePoint" />
            <mxPoint x="1780" y="460" as="targetPoint" />
          </mxGeometry>
        </mxCell>
        <mxCell id="3oZdiD5cq_e08_K9P_xn-77" value="print" style="edgeLabel;html=1;align=center;verticalAlign=middle;resizable=0;points=[];" vertex="1" connectable="0" parent="3oZdiD5cq_e08_K9P_xn-76">
          <mxGeometry x="-0.3754" y="1" relative="1" as="geometry">
            <mxPoint x="-20" y="-9" as="offset" />
          </mxGeometry>
        </mxCell>
        <mxCell id="3oZdiD5cq_e08_K9P_xn-78" value="/exit" style="html=1;verticalAlign=bottom;startArrow=classic;endArrow=oval;startSize=8;edgeStyle=elbowEdgeStyle;elbow=vertical;curved=0;rounded=0;endFill=1;startFill=1;" edge="1" parent="1">
          <mxGeometry x="0.4096" relative="1" as="geometry">
            <mxPoint x="1610" y="480.27" as="sourcePoint" />
            <mxPoint x="1780" y="480.27" as="targetPoint" />
            <mxPoint as="offset" />
          </mxGeometry>
        </mxCell>
        <mxCell id="3oZdiD5cq_e08_K9P_xn-79" value="" style="endArrow=classic;html=1;rounded=0;" edge="1" parent="1" source="3oZdiD5cq_e08_K9P_xn-23">
          <mxGeometry width="50" height="50" relative="1" as="geometry">
            <mxPoint x="1590" y="480" as="sourcePoint" />
            <mxPoint x="1120" y="490" as="targetPoint" />
          </mxGeometry>
        </mxCell>
        <mxCell id="3oZdiD5cq_e08_K9P_xn-80" value="close()" style="edgeLabel;html=1;align=center;verticalAlign=middle;resizable=0;points=[];" vertex="1" connectable="0" parent="3oZdiD5cq_e08_K9P_xn-79">
          <mxGeometry x="0.5721" relative="1" as="geometry">
            <mxPoint x="-23" y="-10" as="offset" />
          </mxGeometry>
        </mxCell>
        <mxCell id="3oZdiD5cq_e08_K9P_xn-97" value="" style="endArrow=classic;html=1;rounded=0;" edge="1" parent="1">
          <mxGeometry width="50" height="50" relative="1" as="geometry">
            <mxPoint x="1610" y="600" as="sourcePoint" />
            <mxPoint x="1780" y="600" as="targetPoint" />
          </mxGeometry>
        </mxCell>
        <mxCell id="3oZdiD5cq_e08_K9P_xn-98" value="Finished" style="edgeLabel;html=1;align=center;verticalAlign=middle;resizable=0;points=[];" vertex="1" connectable="0" parent="3oZdiD5cq_e08_K9P_xn-97">
          <mxGeometry x="0.3765" relative="1" as="geometry">
            <mxPoint y="-10" as="offset" />
          </mxGeometry>
        </mxCell>
        <mxCell id="3oZdiD5cq_e08_K9P_xn-110" value="" style="endArrow=none;html=1;rounded=0;startArrow=classic;startFill=1;endFill=0;" edge="1" parent="1" source="aM9ryv3xv72pqoxQDRHE-2" target="aM9ryv3xv72pqoxQDRHE-6">
          <mxGeometry width="50" height="50" relative="1" as="geometry">
            <mxPoint x="250" y="740" as="sourcePoint" />
            <mxPoint x="375" y="740" as="targetPoint" />
            <Array as="points">
              <mxPoint x="290" y="740" />
            </Array>
          </mxGeometry>
        </mxCell>
        <mxCell id="3oZdiD5cq_e08_K9P_xn-111" value="exit" style="edgeLabel;html=1;align=center;verticalAlign=middle;resizable=0;points=[];" vertex="1" connectable="0" parent="3oZdiD5cq_e08_K9P_xn-110">
          <mxGeometry x="-0.2188" y="1" relative="1" as="geometry">
            <mxPoint y="-11" as="offset" />
          </mxGeometry>
        </mxCell>
      </root>
    </mxGraphModel>
  </diagram>
</mxfile>
